<svg xmlns="http://www.w3.org/2000/svg" xmlns:xlink="http://www.w3.org/1999/xlink" viewBox="0 0 401.77 105"><defs><style>.cls-1{fill:#250715;}.cls-2{fill:url(#linear-gradient);}.cls-3{fill:url(#linear-gradient-2);}.cls-4{fill:url(#linear-gradient-3);}.cls-5{fill:url(#linear-gradient-4);}.cls-6{fill:url(#linear-gradient-5);}</style><linearGradient id="linear-gradient" x1="18.32" y1="19.2" x2="135.77" y2="115.2" gradientUnits="userSpaceOnUse"><stop offset="0" stop-color="#bb2169"/><stop offset="1" stop-color="#f48323"/></linearGradient><linearGradient id="linear-gradient-2" x1="38.24" y1="-5.17" x2="155.69" y2="90.83" xlink:href="#linear-gradient"/><linearGradient id="linear-gradient-3" x1="48.96" y1="-18.28" x2="166.41" y2="77.72" xlink:href="#linear-gradient"/><linearGradient id="linear-gradient-4" x1="-1.59" y1="43.57" x2="115.85" y2="139.57" xlink:href="#linear-gradient"/><linearGradient id="linear-gradient-5" x1="-12.31" y1="56.68" x2="105.13" y2="152.68" xlink:href="#linear-gradient"/></defs><g id="Layer_2" data-name="Layer 2"><g id="Layer_1-2" data-name="Layer 1"><path class="cls-1" d="M169.86,80.58a26.47,26.47,0,0,1-13.71-3.42,22.54,22.54,0,0,1-8.89-9.68,33.26,33.26,0,0,1-3.1-14.91,33.45,33.45,0,0,1,3.1-14.94A22.92,22.92,0,0,1,156,27.88a25.08,25.08,0,0,1,13.32-3.46A26.21,26.21,0,0,1,181.2,27a19.73,19.73,0,0,1,8,7,18.42,18.42,0,0,1,2.88,10.22h-13a9.12,9.12,0,0,0-3-6.26,9.69,9.69,0,0,0-6.84-2.45,10.4,10.4,0,0,0-9,4.57q-3.19,4.58-3.2,12.28,0,8,3.38,12.6a11,11,0,0,0,9.36,4.6,9.81,9.81,0,0,0,6.66-2.34c1.8-1.56,3-4,3.64-7.3h-9.94V49.62h13.11q5.32,0,7.63,2.45a9.71,9.71,0,0,1,2.3,6.91A22.65,22.65,0,0,1,192,66a21.68,21.68,0,0,1-4,7,20.27,20.27,0,0,1-7.24,5.4A26,26,0,0,1,169.86,80.58Z"/><path class="cls-1" d="M199.81,79.5V55.74q0-8.85,4.79-13.61t13.72-4.75c.62,0,1.61,0,3,.11a25.31,25.31,0,0,1,4,.54V48l-2.59-.4a19,19,0,0,0-2.74-.18,13.15,13.15,0,0,0-4.17.65,5.89,5.89,0,0,0-3.13,2.45,9.49,9.49,0,0,0-1.19,5.25V79.5Z"/><path class="cls-1" d="M248.42,80.58a21.34,21.34,0,0,1-10.88-2.74,19.48,19.48,0,0,1-7.45-7.59,22.53,22.53,0,0,1-2.7-11.13,23,23,0,0,1,2.7-11.3,19.76,19.76,0,0,1,7.45-7.67,22.79,22.79,0,0,1,21.78,0,19.83,19.83,0,0,1,7.42,7.67,23,23,0,0,1,2.7,11.3,22.53,22.53,0,0,1-2.7,11.13,19.55,19.55,0,0,1-7.42,7.59A21.26,21.26,0,0,1,248.42,80.58Zm0-10.08A8.08,8.08,0,0,0,255,67.33a12.63,12.63,0,0,0,2.56-8.21A13.17,13.17,0,0,0,255,50.7a8.31,8.31,0,0,0-13.17,0,13.17,13.17,0,0,0-2.56,8.42,12.63,12.63,0,0,0,2.56,8.21A8.09,8.09,0,0,0,248.42,70.5Z"/><path class="cls-1" d="M295.36,80.58a21.31,21.31,0,0,1-10.87-2.74A19.51,19.51,0,0,1,277,70.25a22.53,22.53,0,0,1-2.7-11.13,23,23,0,0,1,2.7-11.3,19.79,19.79,0,0,1,7.46-7.67,22.79,22.79,0,0,1,21.78,0,19.87,19.87,0,0,1,7.41,7.67,23,23,0,0,1,2.7,11.3,22.53,22.53,0,0,1-2.7,11.13,19.59,19.59,0,0,1-7.41,7.59A21.3,21.3,0,0,1,295.36,80.58Zm0-10.08A8.1,8.1,0,0,0,302,67.33a12.69,12.69,0,0,0,2.55-8.21A13.22,13.22,0,0,0,302,50.7a8.32,8.32,0,0,0-13.18,0,13.22,13.22,0,0,0-2.56,8.42,12.69,12.69,0,0,0,2.56,8.21A8.09,8.09,0,0,0,295.36,70.5Z"/><path class="cls-1" d="M338.27,80.58a6.89,6.89,0,0,1-5.33-2.3q-2.08-2.31-4.17-8.21L317.39,38.46h12l8.85,27.22,8.64-27.22h11.74l-11,31.46q-2.08,6-4.14,8.32A6.64,6.64,0,0,1,338.27,80.58Z"/><path class="cls-1" d="M380.75,80.58a21.33,21.33,0,0,1-10.87-2.74,19.48,19.48,0,0,1-7.45-7.59,22.53,22.53,0,0,1-2.7-11.13,23,23,0,0,1,2.7-11.3,19.76,19.76,0,0,1,7.45-7.67,22.79,22.79,0,0,1,21.78,0,20,20,0,0,1,7.42,7.67,23.11,23.11,0,0,1,2.69,11.3,22.63,22.63,0,0,1-2.69,11.13,19.69,19.69,0,0,1-7.42,7.59A21.3,21.3,0,0,1,380.75,80.58Zm0-10.08a8.1,8.1,0,0,0,6.59-3.17,12.69,12.69,0,0,0,2.55-8.21,13.22,13.22,0,0,0-2.55-8.42,8.32,8.32,0,0,0-13.18,0,13.22,13.22,0,0,0-2.55,8.42,12.69,12.69,0,0,0,2.55,8.21A8.1,8.1,0,0,0,380.75,70.5Z"/><rect class="cls-2" y="43.75" width="118.12" height="17.5" rx="8.75"/><rect class="cls-3" x="54.69" y="21.88" width="54.69" height="17.5" rx="8.75"/><circle class="cls-4" cx="82.03" cy="8.75" r="8.75"/><rect class="cls-5" x="8.75" y="65.63" width="54.69" height="17.5" rx="8.75"/><circle class="cls-6" cx="36.09" cy="96.25" r="8.75"/></g></g></svg>